Coordinates
version=1
nRows=5
nColumns=40
inDegrees=yes

Units are S.I. units (second, meters, Newtons, ...)
If the header above contains a line with 'inDegrees', this indicates whether rotational values are in degrees (yes) or radians (no).

endheader
time	pelvis_tilt	pelvis_list	pelvis_rotation	pelvis_tx	pelvis_ty	pelvis_tz	hip_flexion_r	hip_adduction_r	hip_rotation_r	knee_angle_r	knee_angle_r_beta	ankle_angle_r	subtalar_angle_r	mtp_angle_r	hip_flexion_l	hip_adduction_l	hip_rotation_l	knee_angle_l	knee_angle_l_beta	ankle_angle_l	subtalar_angle_l	mtp_angle_l	lumbar_extension	lumbar_bending	lumbar_rotation	arm_flex_r	arm_add_r	arm_rot_r	elbow_flex_r	pro_sup_r	wrist_flex_r	wrist_dev_r	arm_flex_l	arm_add_l	arm_rot_l	elbow_flex_l	pro_sup_l	wrist_flex_l	wrist_dev_l
      7.76666667	    -30.25106259	     -8.02468169	     -0.46281576	     -0.30585373	      1.19236893	      0.03646083	     94.91867813	     -4.63279200	     -2.75199313	     97.95963715	      1.70971820	      7.99799944	    -22.99927353	      0.00000000	     58.44508286	    -10.50407003	      5.71997749	     39.14572647	      0.68322181	    -18.29128430	    -16.04159997	      0.00000000	    -47.79178141	     12.91482368	      7.67369994	     89.90952782	     -8.68188080	     16.20686314	     40.69538754	     85.89458036	      0.00000000	      0.00000000	     89.90873970	    -11.80812092	     33.93051354	     28.97599547	     66.06444345	      0.00000000	      0.00000000
      7.77500000	    -30.55207019	     -8.11619321	     -0.66867825	     -0.30602562	      1.19258051	      0.03692804	     95.34884643	     -4.53016063	     -3.02651792	     96.24358109	      1.67976737	      7.70575821	    -23.33239945	      0.00000000	     58.99385125	    -10.68493662	      5.99222482	     41.19898039	      0.71905786	    -17.39189510	    -17.04968684	      0.00000000	    -47.56642285	     12.92859174	      7.95344598	     89.91179565	     -8.74440368	     16.27668242	     40.67980013	     85.91668313	      0.00000000	      0.00000000	     89.90844061	    -11.61311558	     33.66453073	     28.71856394	     66.12070602	      0.00000000	      0.00000000
      7.78333333	    -30.47328003	     -7.86991129	     -0.54823299	     -0.30584286	      1.19315483	      0.03697610	     95.26153047	     -4.75630281	     -2.97527937	     94.41743587	      1.64789513	      7.35465342	    -23.23883354	      0.00000000	     59.34821364	    -10.51002501	      5.93549784	     43.56955346	      0.76043216	    -17.11201293	    -17.30734242	      0.00000000	    -47.65599201	     12.85410254	      7.73442465	     89.91180681	     -8.70723174	     16.21081158	     40.82627888	     85.91511825	      0.00000000	      0.00000000	     89.91016318	    -11.62708635	     33.50300496	     28.79497857	     66.12923927	      0.00000000	      0.00000000
      7.79166667	    -30.85810962	     -8.03273723	     -0.67649922	     -0.30632099	      1.19322482	      0.03742707	     95.34346346	     -4.74094986	     -3.37381736	     92.11561672	      1.60772080	      6.67675882	    -22.93766698	      0.00000000	     60.48812107	    -10.70547062	      6.26345442	     46.29564995	      0.80801152	    -16.08504799	    -18.00309309	      0.00000000	    -47.34460767	     12.95975532	      7.97233720	     89.91282568	     -8.70711515	     16.18906360	     40.78910831	     85.93550742	      0.00000000	      0.00000000	     89.91032465	    -11.49007456	     33.30097080	     28.60148169	     66.21195362	      0.00000000	      0.00000000
      7.80000000	    -31.10272514	     -8.44570860	     -0.55641596	     -0.30665816	      1.19351309	      0.03769965	     94.97239634	     -4.91707125	     -4.03759350	     89.60730549	      1.56394251	      5.81003945	    -23.24785820	      0.00000000	     61.77065497	    -10.93415024	      6.76475905	     49.24317071	      0.85945546	    -15.47938497	    -18.11016504	      0.00000000	    -47.21235154	     13.40578946	      8.25468133	     89.91305089	     -8.79753639	     16.24539683	     40.91227792	     85.96321463	      0.00000000	      0.00000000	     89.91155337	    -11.41494616	     33.10544341	     28.56897028	     66.45369536	      0.00000000	      0.00000000
